<svg width="75" height="66" viewBox="0 0 75 66" fill="none" xmlns="http://www.w3.org/2000/svg">
<rect width="72.8167" height="65.4656" rx="32.7328" transform="matrix(0.999972 0.00741588 -0.00885086 0.999961 1.24487 0)" fill="white"/>
<path d="M25.7836 31.279C25.6183 31.0761 25.3728 30.9419 25.1008 30.906C24.8288 30.87 24.5524 30.9352 24.3322 31.0873C24.2026 31.1802 24.0977 31.2993 24.0255 31.4355L14.9574 47.8767C14.829 48.1097 14.8058 48.3803 14.893 48.6291C14.9802 48.8778 15.1707 49.0843 15.4225 49.2032C15.5697 49.2734 15.7327 49.3104 15.8984 49.3112L28.328 49.403C28.527 49.4091 28.7237 49.3615 28.8939 49.2659C29.0642 49.1702 29.2006 49.0308 29.2864 48.8646C32.0146 43.7596 30.4577 35.9559 25.7836 31.279Z" fill="url(#paint0_linear_114_5043)"/>
<path d="M33.7734 16.407C31.5213 19.5558 30.1927 23.1919 29.9181 26.9585C29.6436 30.725 30.4323 34.4926 32.2071 37.8918L38.1013 49.0212C38.1884 49.1857 38.3233 49.3245 38.4908 49.4221C38.6584 49.5196 38.852 49.5721 39.0501 49.5737L51.4772 49.6654C51.6173 49.6668 51.7564 49.6425 51.8864 49.594C52.0164 49.5455 52.1347 49.4737 52.2347 49.3828C52.3346 49.2918 52.4141 49.1836 52.4686 49.0641C52.5232 48.9447 52.5517 48.8165 52.5525 48.6869C52.554 48.534 52.5175 48.3829 52.446 48.2451L35.5878 16.4157C35.5079 16.2563 35.3806 16.1211 35.2209 16.0259C35.0611 15.9307 34.8754 15.8794 34.6853 15.878C34.4953 15.8766 34.3087 15.9252 34.1473 16.018C33.9858 16.1108 33.8562 16.2441 33.7734 16.4023L33.7734 16.407Z" fill="url(#paint1_linear_114_5043)"/>
<path d="M49.2046 36.7619C49.3574 36.9673 49.5844 37.1029 49.836 37.1391C50.0877 37.1753 50.3434 37.1091 50.5472 36.9551C50.6672 36.8609 50.7644 36.7403 50.8313 36.6025L59.2332 19.9573C59.3522 19.7214 59.3739 19.4475 59.2934 19.1958C59.2129 18.9441 59.0369 18.7352 58.804 18.6151C58.6679 18.5441 58.5171 18.5067 58.3639 18.5061L46.8648 18.4212C46.6806 18.4151 46.4986 18.4634 46.3411 18.5603C46.1835 18.6572 46.0572 18.7984 45.9776 18.9667C43.4497 24.135 44.884 32.0317 49.2046 36.7619Z" fill="url(#paint2_linear_114_5043)"/>
<defs>
<linearGradient id="paint0_linear_114_5043" x1="30.6723" y1="33.8383" x2="22.1852" y2="49.4407" gradientUnits="userSpaceOnUse">
<stop stop-color="#0052CC"/>
<stop offset="0.92" stop-color="#2684FF"/>
</linearGradient>
<linearGradient id="paint1_linear_114_5043" x1="52.959" y1="20.9672" x2="43.0571" y2="45.3331" gradientUnits="userSpaceOnUse">
<stop offset="0.596" stop-color="#EFBD09"/>
<stop offset="1" stop-color="#F89400"/>
</linearGradient>
<linearGradient id="paint2_linear_114_5043" x1="44.6839" y1="34.175" x2="53.6774" y2="19.0507" gradientUnits="userSpaceOnUse">
<stop stop-color="#0052CC"/>
<stop offset="0.92" stop-color="#2684FF"/>
</linearGradient>
</defs>
</svg>
