<svg width="123" height="48" viewBox="0 0 123 48" fill="none" xmlns="http://www.w3.org/2000/svg">
<rect width="122.682" height="47.2366" rx="21.309" fill="#1B2E35" fill-opacity="0.84"/>
<rect width="35.9085" height="37.0585" rx="17.9542" transform="matrix(0.99996 0.00891541 -0.00736219 0.999973 7.28357 5.2578)" fill="white" fill-opacity="0.84"/>
<path d="M19.177 23.0554C19.0946 22.9393 18.9723 22.8625 18.8367 22.842C18.7012 22.8214 18.5634 22.8587 18.4537 22.9457C18.3891 22.9989 18.3368 23.067 18.3008 23.1449L13.7816 32.5507C13.7176 32.684 13.7061 32.8388 13.7495 32.9811C13.793 33.1234 13.8879 33.2415 14.0134 33.3096C14.0867 33.3497 14.168 33.3709 14.2506 33.3713L20.445 33.4238C20.5442 33.4274 20.6422 33.4001 20.7271 33.3454C20.8119 33.2907 20.8799 33.2109 20.9227 33.1158C22.2823 30.1953 21.5064 25.731 19.177 23.0554Z" fill="url(#paint0_linear_216_244)" fill-opacity="0.87"/>
<path d="M23.1593 14.5458C23.1593 14.5468 23.159 14.5478 23.1585 14.5486C22.0366 16.3498 21.3748 18.4294 21.238 20.5837C21.1011 22.7385 21.4942 24.8939 22.3787 26.8385L25.3162 33.2055C25.3596 33.2996 25.4268 33.379 25.5103 33.4348C25.5938 33.4907 25.6903 33.5207 25.789 33.5216L31.9822 33.5741C32.0521 33.5748 32.1214 33.5609 32.1861 33.5332C32.2509 33.5054 32.3099 33.4644 32.3597 33.4124C32.4095 33.3603 32.4491 33.2984 32.4763 33.2301C32.5035 33.1618 32.5177 33.0884 32.5181 33.0143C32.5188 32.9268 32.5007 32.8403 32.465 32.7615L24.0635 14.5524C24.0237 14.4611 23.9603 14.3838 23.8807 14.3294C23.801 14.2749 23.7085 14.2456 23.6138 14.2448C23.5191 14.244 23.4261 14.2717 23.3456 14.3248C23.2655 14.3777 23.2011 14.4536 23.1598 14.5437C23.1595 14.5444 23.1593 14.5451 23.1593 14.5458V14.5458Z" fill="url(#paint1_linear_216_244)"/>
<path d="M30.8499 26.1921C30.926 26.3095 31.0391 26.3871 31.1645 26.4078C31.2899 26.4285 31.4174 26.3907 31.519 26.3026C31.5787 26.2487 31.6272 26.1797 31.6605 26.1008L35.8477 16.5783C35.907 16.4434 35.9178 16.2867 35.8777 16.1427C35.8376 15.9987 35.7499 15.8792 35.6338 15.8105C35.566 15.7699 35.4908 15.7485 35.4145 15.7482L29.6838 15.6996C29.592 15.6961 29.5013 15.7237 29.4228 15.7792C29.3442 15.8346 29.2813 15.9154 29.2416 16.0116C27.9818 18.9684 28.6966 23.486 30.8499 26.1921Z" fill="#1B2E35" fill-opacity="0.99"/>
<path d="M62.0987 10.8937C62.1956 12.59 62.2441 14.3833 62.2441 16.2735C62.2441 18.1475 62.1633 20.3932 62.0017 23.0104H59.6753C56.5411 21.3302 53.6654 19.0442 51.0482 16.1523C51.1775 17.2348 51.2421 18.3495 51.2421 19.4965C51.2421 20.6274 51.2017 21.7987 51.1209 23.0104H48.2856C48.6087 21.0233 48.7703 19.1896 48.7703 17.5094C48.7703 15.8131 48.6895 14.4721 48.5279 13.4866C47.8817 12.5173 47.3728 11.653 47.0012 10.8937H53.8835C54.5621 12.0569 55.4829 13.2605 56.6461 14.5044C57.8255 15.7323 58.9483 16.6935 60.0146 17.3882C60.0146 15.0295 59.748 12.8646 59.2149 10.8937H62.0987ZM70.5645 20.5265H72.7576C72.8465 20.5265 72.9232 20.5588 72.9878 20.6234C73.0525 20.688 73.0848 20.7648 73.0848 20.8536V22.6832C73.0848 22.7721 73.0525 22.8488 72.9878 22.9135C72.9232 22.9781 72.8465 23.0104 72.7576 23.0104H65.0756C64.9868 23.0104 64.91 22.9781 64.8454 22.9135C64.7808 22.8488 64.7485 22.7721 64.7485 22.6832V20.8536C64.7485 20.7648 64.7808 20.688 64.8454 20.6234C64.91 20.5588 64.9868 20.5265 65.0756 20.5265H67.293V17.0126H65.0756C64.9868 17.0126 64.91 16.9803 64.8454 16.9157C64.7808 16.8511 64.7485 16.7743 64.7485 16.6855V14.8558C64.7485 14.767 64.7808 14.6902 64.8454 14.6256C64.91 14.561 64.9868 14.5287 65.0756 14.5287H72.7576C72.8465 14.5287 72.9232 14.561 72.9878 14.6256C73.0525 14.6902 73.0848 14.767 73.0848 14.8558V16.6855C73.0848 16.7743 73.0525 16.8511 72.9878 16.9157C72.9232 16.9803 72.8465 17.0126 72.7576 17.0126H70.5645V20.5265ZM83.0037 14.5287C83.0925 14.5287 83.1692 14.561 83.2339 14.6256C83.2985 14.6902 83.3308 14.767 83.3308 14.8558V22.6832C83.3308 22.7721 83.2985 22.8488 83.2339 22.9135C83.1692 22.9781 83.0925 23.0104 83.0037 23.0104H81.0529C80.859 23.0104 80.6974 22.9256 80.5682 22.7559L77.9267 19.3875V22.6832C77.9267 22.7721 77.8944 22.8488 77.8298 22.9135C77.7652 22.9781 77.6884 23.0104 77.5996 23.0104H75.3459C75.257 23.0104 75.1803 22.9781 75.1157 22.9135C75.051 22.8488 75.0187 22.7721 75.0187 22.6832V14.8558C75.0187 14.767 75.051 14.6902 75.1157 14.6256C75.1803 14.561 75.257 14.5287 75.3459 14.5287H77.3088C77.5027 14.5287 77.6602 14.6095 77.7813 14.771L80.4228 18.4182V14.8558C80.4228 14.767 80.4551 14.6902 80.5197 14.6256C80.5843 14.561 80.6611 14.5287 80.7499 14.5287H83.0037ZM93.6617 19.4844C93.6617 20.7123 93.2578 21.6291 92.45 22.2349C91.6422 22.8327 90.5638 23.1316 89.2148 23.1316C88.2455 23.1316 87.4175 22.9781 86.7309 22.6711C86.0523 22.3561 85.5394 21.9603 85.1921 21.4837C84.8528 21.0071 84.6831 20.5265 84.6831 20.0418C84.6831 19.9691 84.7074 19.9085 84.7558 19.86C84.8124 19.8035 84.877 19.7752 84.9497 19.7752H87.6881C87.7608 19.7752 87.8214 19.7995 87.8699 19.8479C87.9264 19.8964 87.9668 19.961 87.991 20.0418C88.1445 20.5265 88.5322 20.7688 89.1542 20.7688C89.5339 20.7688 89.8328 20.6799 90.0509 20.5022C90.277 20.3245 90.3901 20.0701 90.3901 19.7389V17.0126H85.9675C85.8787 17.0126 85.8019 16.9803 85.7373 16.9157C85.6727 16.8511 85.6404 16.7743 85.6404 16.6855V14.8558C85.6404 14.767 85.6727 14.6902 85.7373 14.6256C85.8019 14.561 85.8787 14.5287 85.9675 14.5287H93.3345C93.4234 14.5287 93.5001 14.561 93.5647 14.6256C93.6293 14.6902 93.6617 14.767 93.6617 14.8558V19.4844ZM98.0553 22.5984C97.9503 22.8731 97.7685 23.0104 97.51 23.0104H95.22C95.1473 23.0104 95.0827 22.9862 95.0261 22.9377C94.9776 22.8812 94.9534 22.8165 94.9534 22.7438L94.9655 22.6711L97.607 14.9285C97.6393 14.8235 97.6999 14.7306 97.7887 14.6498C97.8776 14.5691 97.9987 14.5287 98.1522 14.5287H101.521C101.674 14.5287 101.795 14.5691 101.884 14.6498C101.973 14.7306 102.034 14.8235 102.066 14.9285L104.707 22.6711L104.72 22.7438C104.72 22.8165 104.691 22.8812 104.635 22.9377C104.586 22.9862 104.526 23.0104 104.453 23.0104H102.163C101.904 23.0104 101.723 22.8731 101.618 22.5984L101.315 21.7503H98.3582L98.0553 22.5984ZM99.8365 16.8672L98.9762 19.3875H100.697L99.8365 16.8672ZM55.386 26.5287C55.4749 26.5287 55.5516 26.561 55.6162 26.6256C55.6808 26.6902 55.7132 26.767 55.7132 26.8558V34.6832C55.7132 34.7721 55.6808 34.8488 55.6162 34.9135C55.5516 34.9781 55.4749 35.0104 55.386 35.0104H53.4352C53.2413 35.0104 53.0798 34.9256 52.9505 34.7559L50.3091 31.3875V34.6832C50.3091 34.7721 50.2768 34.8488 50.2122 34.9135C50.1475 34.9781 50.0708 35.0104 49.9819 35.0104H47.7282C47.6394 35.0104 47.5626 34.9781 47.498 34.9135C47.4334 34.8488 47.4011 34.7721 47.4011 34.6832V26.8558C47.4011 26.767 47.4334 26.6902 47.498 26.6256C47.5626 26.561 47.6394 26.5287 47.7282 26.5287H49.6911C49.885 26.5287 50.0425 26.6095 50.1637 26.771L52.8051 30.4182V26.8558C52.8051 26.767 52.8374 26.6902 52.9021 26.6256C52.9667 26.561 53.0434 26.5287 53.1323 26.5287H55.386ZM66.3954 31.5087C66.3954 32.7446 65.9834 33.6574 65.1595 34.247C64.3436 34.8367 63.2531 35.1316 61.888 35.1316C60.5228 35.1316 59.4283 34.8367 58.6043 34.247C57.7885 33.6574 57.3805 32.7365 57.3805 31.4844V30.0547C57.3805 29.2307 57.5744 28.5481 57.9621 28.0069C58.3579 27.4576 58.8951 27.0537 59.5737 26.7952C60.2522 26.5368 61.0236 26.4075 61.888 26.4075C62.7523 26.4075 63.5197 26.5368 64.1901 26.7952C64.8687 27.0537 65.4059 27.4536 65.8017 27.9948C66.1975 28.536 66.3954 29.2146 66.3954 30.0304V31.5087ZM60.6521 31.7389C60.6521 32.0701 60.7611 32.3245 60.9792 32.5022C61.2054 32.6799 61.5083 32.7688 61.888 32.7688C62.2676 32.7688 62.5665 32.6799 62.7846 32.5022C63.0108 32.3164 63.1239 32.058 63.1239 31.7268V29.8123C63.1239 29.4811 63.0108 29.2267 62.7846 29.049C62.5665 28.8632 62.2676 28.7703 61.888 28.7703C61.5083 28.7703 61.2054 28.8591 60.9792 29.0368C60.7611 29.2146 60.6521 29.469 60.6521 29.8002V31.7389ZM76.3627 26.5287C76.4516 26.5287 76.5283 26.561 76.5929 26.6256C76.6576 26.6902 76.6899 26.767 76.6899 26.8558V28.8066C76.6899 28.8955 76.6576 28.9722 76.5929 29.0368C76.5283 29.1015 76.4516 29.1338 76.3627 29.1338H73.7576V34.6832C73.7576 34.7721 73.7253 34.8488 73.6607 34.9135C73.5961 34.9781 73.5193 35.0104 73.4305 35.0104H70.9344C70.8456 35.0104 70.7688 34.9781 70.7042 34.9135C70.6396 34.8488 70.6073 34.7721 70.6073 34.6832V29.1338H68.0022C67.9133 29.1338 67.8366 29.1015 67.772 29.0368C67.7073 28.9722 67.675 28.8955 67.675 28.8066V26.8558C67.675 26.767 67.7073 26.6902 67.772 26.6256C67.8366 26.561 67.9133 26.5287 68.0022 26.5287H76.3627ZM86.4028 32.6476C86.4916 32.6476 86.5684 32.6799 86.633 32.7446C86.6976 32.8092 86.7299 32.8859 86.7299 32.9748V34.6832C86.7299 34.7721 86.6976 34.8488 86.633 34.9135C86.5684 34.9781 86.4916 35.0104 86.4028 35.0104H78.745C78.6561 35.0104 78.5794 34.9781 78.5148 34.9135C78.4502 34.8488 78.4178 34.7721 78.4178 34.6832V26.8558C78.4178 26.767 78.4502 26.6902 78.5148 26.6256C78.5794 26.561 78.6561 26.5287 78.745 26.5287H86.2816C86.3705 26.5287 86.4472 26.561 86.5118 26.6256C86.5765 26.6902 86.6088 26.767 86.6088 26.8558V28.5643C86.6088 28.6531 86.5765 28.7299 86.5118 28.7945C86.4472 28.8591 86.3705 28.8914 86.2816 28.8914H81.5682V29.6548H85.6152C85.704 29.6548 85.7808 29.6871 85.8454 29.7517C85.91 29.8164 85.9423 29.8931 85.9423 29.982V31.5571C85.9423 31.646 85.91 31.7227 85.8454 31.7873C85.7808 31.852 85.704 31.8843 85.6152 31.8843H81.5682V32.6476H86.4028ZM93.4379 29.6063C94.3264 29.7033 95.0373 29.8608 95.5704 30.0789C96.1116 30.297 96.5034 30.5837 96.7457 30.9392C96.9881 31.2946 97.1092 31.7389 97.1092 32.272C97.1092 32.8536 96.9194 33.3625 96.5398 33.7987C96.1682 34.2268 95.6512 34.558 94.9888 34.7923C94.3264 35.0185 93.5712 35.1316 92.723 35.1316C91.7779 35.1316 90.9782 35.0144 90.3239 34.7802C89.6696 34.5459 89.1809 34.2349 88.8577 33.8472C88.5346 33.4514 88.3731 33.0192 88.3731 32.5507C88.3731 32.4699 88.3973 32.4053 88.4458 32.3568C88.5023 32.3084 88.571 32.2841 88.6518 32.2841H91.1357C91.3053 32.2841 91.4426 32.3366 91.5477 32.4416C91.685 32.5709 91.8385 32.6598 92.0081 32.7082C92.1777 32.7486 92.416 32.7688 92.723 32.7688C93.4904 32.7688 93.8741 32.6517 93.8741 32.4174C93.8741 32.3205 93.8216 32.2397 93.7166 32.1751C93.6196 32.1024 93.4419 32.0418 93.1834 31.9933C92.933 31.9368 92.5614 31.8802 92.0687 31.8237C90.962 31.6945 90.1138 31.4198 89.5242 30.9998C88.9345 30.5716 88.6396 29.9698 88.6396 29.1944C88.6396 28.6451 88.8052 28.1604 89.1364 27.7404C89.4676 27.3203 89.9361 26.9932 90.542 26.7589C91.1559 26.5246 91.8667 26.4075 92.6745 26.4075C93.5146 26.4075 94.2497 26.5408 94.8798 26.8074C95.5098 27.0659 95.9905 27.389 96.3217 27.7767C96.6528 28.1644 96.8184 28.5441 96.8184 28.9157C96.8184 28.9965 96.7902 29.0611 96.7336 29.1095C96.6852 29.158 96.6165 29.1822 96.5276 29.1822H93.9225C93.7852 29.1822 93.66 29.1338 93.5469 29.0368C93.4581 28.9561 93.3531 28.8914 93.2319 28.843C93.1107 28.7945 92.9249 28.7703 92.6745 28.7703C92.1333 28.7703 91.8627 28.8834 91.8627 29.1095C91.8627 29.2307 91.9677 29.3276 92.1777 29.4003C92.3878 29.465 92.8078 29.5336 93.4379 29.6063Z" fill="#5AE5A9"/>
<defs>
<linearGradient id="paint0_linear_216_244" x1="21.8779" y1="25.3601" x2="14.6421" y2="35.2028" gradientUnits="userSpaceOnUse">
<stop offset="0.571" stop-color="#1B2E35"/>
<stop offset="1" stop-color="#D5F6E7"/>
</linearGradient>
<linearGradient id="paint1_linear_216_244" x1="30.7888" y1="14.3056" x2="25.2759" y2="35.9251" gradientUnits="userSpaceOnUse">
<stop offset="0.644" stop-color="#1B2E35"/>
<stop offset="1" stop-color="#D5F6E7"/>
</linearGradient>
</defs>
</svg>
