<svg width="207" height="73" viewBox="0 0 207 73" fill="none" xmlns="http://www.w3.org/2000/svg">
<rect width="206.029" height="73" rx="30" fill="#2684FF"/>
<rect width="63.0002" height="64.4358" rx="31.5001" transform="matrix(0.99996 0.00898639 -0.00730403 0.999973 4.37659 4)" fill="white"/>
<path d="M25.6066 34.787C25.4636 34.5872 25.2511 34.4551 25.0158 34.4198C24.7805 34.3844 24.5414 34.4486 24.3508 34.5982C24.2387 34.6897 24.1479 34.807 24.0854 34.941L16.2399 51.1237C16.1288 51.353 16.1088 51.6194 16.1842 51.8642C16.2597 52.109 16.4244 52.3123 16.6423 52.4293C16.7696 52.4984 16.9107 52.5349 17.054 52.5356L27.8079 52.6259C27.9801 52.632 28.1502 52.5851 28.2975 52.491C28.4448 52.3969 28.5628 52.2596 28.6371 52.096C30.9975 47.0713 29.6505 39.3903 25.6066 34.787Z" fill="url(#paint0_linear_107_293)"/>
<path d="M32.5196 20.1462C32.5196 20.1479 32.5191 20.1496 32.5182 20.151C30.5705 23.2499 29.4216 26.828 29.1841 30.5344C28.9465 34.2417 29.629 37.9502 31.1645 41.2958L36.264 52.2503C36.3394 52.4122 36.4561 52.5488 36.601 52.6448C36.746 52.7409 36.9136 52.7925 37.0849 52.794L47.8366 52.8844C47.9579 52.8857 48.0782 52.8618 48.1907 52.8141C48.3031 52.7663 48.4055 52.6957 48.492 52.6062C48.5784 52.5167 48.6472 52.4101 48.6944 52.2925C48.7416 52.175 48.7662 52.0488 48.767 51.9212C48.7682 51.7707 48.7367 51.622 48.6748 51.4863L34.0894 20.1575C34.0202 20.0005 33.9101 19.8675 33.7719 19.7738C33.6337 19.6801 33.473 19.6296 33.3086 19.6282C33.1442 19.6268 32.9827 19.6746 32.8431 19.766C32.7039 19.857 32.5921 19.9875 32.5205 20.1425C32.5199 20.1437 32.5196 20.1449 32.5196 20.1462V20.1462Z" fill="#1466E0"/>
<path d="M45.8701 40.1836C46.0022 40.3857 46.1987 40.5192 46.4164 40.5548C46.6341 40.5905 46.8553 40.5253 47.0317 40.3737C47.1355 40.2811 47.2195 40.1623 47.2774 40.0267L54.5466 23.6432C54.6496 23.411 54.6683 23.1414 54.5987 22.8937C54.5291 22.646 54.3768 22.4404 54.1753 22.3221C54.0575 22.2522 53.927 22.2155 53.7945 22.2148L43.8457 22.1313C43.6864 22.1252 43.5289 22.1728 43.3926 22.2682C43.2562 22.3635 43.147 22.5026 43.0781 22.6682C40.891 27.7552 42.132 35.5278 45.8701 40.1836Z" fill="url(#paint1_linear_107_293)"/>
<path d="M69.6143 32V9.12H74.7983L90.9903 25.568V9.12H96.1103V32H90.9263L74.7343 15.52V32H69.6143ZM100.103 32V15.52H104.743V32H100.103ZM100.071 12.8V9.184H104.775V12.8H100.071ZM108.259 32V15.52H122.627C124.505 15.52 125.87 15.9893 126.723 16.928C127.598 17.8453 128.035 19.0613 128.035 20.576V32H123.395V21.12C123.395 19.84 122.755 19.2 121.475 19.2H112.899V32H108.259ZM131.256 39.2V15.52H135.896V39.2H131.256ZM131.224 12.8V9.184H135.928V12.8H131.224ZM143.675 32C141.947 32 140.624 31.5627 139.707 30.688C138.789 29.8133 138.331 28.5653 138.331 26.944C138.331 25.344 138.789 24.1067 139.707 23.232C140.624 22.3573 141.947 21.92 143.675 21.92H155.963V21.152C155.963 19.8507 155.323 19.2 154.043 19.2H140.475V15.52H155.259C157.2 15.52 158.576 15.968 159.387 16.864C160.197 17.7387 160.603 18.976 160.603 20.576V32H143.675ZM144.507 28.32H155.963V25.6H144.507C144.101 25.6 143.781 25.728 143.547 25.984C143.333 26.2187 143.227 26.5387 143.227 26.944C143.227 27.3493 143.333 27.68 143.547 27.936C143.781 28.192 144.101 28.32 144.507 28.32ZM69.6143 64V41.12H74.7983L90.9903 57.568V41.12H96.1103V64H90.9263L74.7343 47.52V64H69.6143ZM108.551 64.16C105.692 64.16 103.463 63.456 101.863 62.048C100.263 60.6187 99.463 58.528 99.463 55.776C99.463 53.0027 100.263 50.912 101.863 49.504C103.463 48.0747 105.692 47.36 108.551 47.36H114.471C117.33 47.36 119.559 48.0747 121.159 49.504C122.759 50.912 123.559 53.0027 123.559 55.776C123.559 58.528 122.759 60.6187 121.159 62.048C119.559 63.456 117.33 64.16 114.471 64.16H108.551ZM108.551 60.48H114.471C115.858 60.48 116.914 60.096 117.639 59.328C118.386 58.56 118.759 57.376 118.759 55.776C118.759 54.1547 118.386 52.96 117.639 52.192C116.914 51.424 115.858 51.04 114.471 51.04H108.551C107.164 51.04 106.098 51.424 105.351 52.192C104.626 52.96 104.263 54.1547 104.263 55.776C104.263 57.376 104.626 58.56 105.351 59.328C106.098 60.096 107.164 60.48 108.551 60.48ZM135.648 64C133.792 64 132.426 63.5413 131.552 62.624C130.677 61.6853 130.24 60.4587 130.24 58.944V51.2H125.472V47.52H130.24V42.464H134.88V47.52H141.728V51.2H134.88V58.368C134.88 59.6693 135.52 60.32 136.8 60.32H142.624V64H135.648ZM153.457 64.16C150.599 64.16 148.369 63.456 146.769 62.048C145.169 60.6187 144.369 58.528 144.369 55.776C144.369 53.0027 145.169 50.912 146.769 49.504C148.369 48.0747 150.599 47.36 153.457 47.36H161.457C163.335 47.36 164.764 47.808 165.745 48.704C166.748 49.5787 167.249 50.8373 167.249 52.48C167.249 55.8293 165.319 57.504 161.457 57.504H149.361C149.809 59.488 151.175 60.48 153.457 60.48H166.417V64.16H153.457ZM153.457 51.04C151.26 51.04 149.905 51.968 149.393 53.824H161.233C161.66 53.824 161.991 53.696 162.225 53.44C162.481 53.184 162.609 52.832 162.609 52.384C162.609 51.488 162.151 51.04 161.233 51.04H153.457ZM169.59 64.16V60.48H185.27C186.166 60.48 186.614 59.9787 186.614 58.976C186.614 57.9947 186.166 57.504 185.27 57.504H175.126C173.228 57.504 171.788 57.0773 170.806 56.224C169.825 55.3493 169.334 54.1013 169.334 52.48C169.334 50.8373 169.825 49.5787 170.806 48.704C171.809 47.808 173.249 47.36 175.126 47.36H189.718V51.04H175.35C174.433 51.04 173.974 51.488 173.974 52.384C173.974 52.832 174.102 53.184 174.358 53.44C174.614 53.696 174.945 53.824 175.35 53.824H186.102C187.766 53.824 189.036 54.2613 189.91 55.136C190.806 55.9893 191.254 57.2373 191.254 58.88C191.254 60.544 190.806 61.8453 189.91 62.784C189.014 63.7013 187.745 64.16 186.102 64.16H169.59Z" fill="white"/>
<defs>
<linearGradient id="paint0_linear_107_293" x1="29.8362" y1="37.306" x2="20.9309" y2="51.6963" gradientUnits="userSpaceOnUse">
<stop stop-color="#0052CC"/>
<stop offset="0.92" stop-color="#2684FF"/>
</linearGradient>
<linearGradient id="paint1_linear_107_293" x1="41.9588" y1="37.6374" x2="51.3106" y2="23.8135" gradientUnits="userSpaceOnUse">
<stop stop-color="#0052CC"/>
<stop offset="0.92" stop-color="#2684FF"/>
</linearGradient>
</defs>
</svg>
